<svg width="135" height="135" viewBox="0 0 135 135" fill="none" xmlns="http://www.w3.org/2000/svg">
<rect width="135" height="135" rx="10" fill="#F4F4F9"/>
<path d="M39.4538 49.4111C39.1462 49.8398 38.5806 50.0031 38.109 49.7664C35.0873 48.2499 32.5672 45.5865 31.2527 42.3765C29.8211 38.8819 29.6914 34.8689 30.9932 31.3729C32.0326 28.5252 33.8548 25.9361 36.196 23.9938C38.5372 22.0516 41.3989 20.6278 44.3902 19.8509C47.6425 19.074 51.0246 18.9455 54.4067 19.3339C57.7887 19.8509 61.041 20.7578 64.2934 21.7931C69.1055 23.3469 73.7894 25.1592 78.7312 26.1946C82.504 27.1014 86.2767 28.2653 90.1792 28.3953C91.1034 28.3953 92.0939 28.3296 93.0098 28.106C93.7403 27.9277 94.4096 27.549 94.9659 27.0432C95.1643 26.8628 95.3495 26.6692 95.5118 26.453C95.7525 26.0544 95.944 25.7051 96.0858 25.314C96.274 24.7952 96.3126 24.2318 96.229 23.6863C96.1663 23.2772 96.0576 22.8782 95.9025 22.57C95.5118 21.9231 94.9913 21.2747 94.4724 20.8863C93.3003 19.9809 92 19.5924 90.5699 19.204C89.5709 19.0236 88.5718 18.8425 87.6174 18.7058C86.9319 18.6077 86.4065 18.0293 86.4065 17.3368C86.4065 16.6359 86.9441 16.0491 87.6446 16.0223C88.8373 15.9765 90.0642 16.0012 91.2201 16.0964C94.2114 16.4848 97.334 17.2617 99.9347 18.6855C102.667 20.1108 105.008 22.3115 106.439 25.0292C108.001 27.8783 108.39 31.3729 107.61 34.609C106.699 37.8451 104.619 40.5642 101.755 42.5064C99.4143 44.0602 96.5526 45.0956 93.5613 45.3541C91.7722 45.5775 90.3089 47.0742 90.3089 48.8772V57.5655C90.3089 59.8603 91.2146 62.0626 92.8288 63.6937C96.1882 67.088 96.1885 72.5549 92.8288 75.949L92.7312 76.0477C91.1794 77.6154 90.3089 79.7321 90.3089 81.9379V94.9254C90.3089 96.2862 91.8015 97.0183 92.9111 96.2304C97.4617 92.4356 101.083 87.5986 103.443 82.1579C103.689 81.5909 104.242 81.2139 104.86 81.2139C105.671 81.2139 106.341 81.8524 106.34 82.6628C106.328 88.1308 104.916 93.5535 102.407 98.4312C99.2845 104.256 94.6021 109.176 88.8789 112.542C83.1541 115.908 76.651 117.721 70.0166 117.979C57.9185 118.368 45.692 113.319 37.4964 104.386C29.3022 95.4535 25.3997 82.7677 27.6112 70.9872C29.0412 63.6082 32.6842 56.7461 38.0168 51.4392C43.1345 46.471 49.688 43.0513 56.7593 41.6393C57.305 41.5304 57.8587 41.7691 58.1684 42.2313C58.604 42.8814 58.4237 43.7598 57.7867 44.2144C56.6152 45.0504 55.4972 45.9535 54.4378 46.9175C50.602 50.4078 54.5634 54.9712 59.3359 52.9418L63.8893 51.0056C68.8906 48.8789 74.4395 52.5491 74.4395 57.9838V79.218C74.4395 83.2495 72.0186 86.8868 68.2995 88.4429L58.5911 92.5053C55.2291 93.912 54.4427 98.2711 57.659 99.9849C63.1228 103.091 69.6259 104.256 75.8696 103.48C77.5801 103.303 79.264 102.968 80.909 102.497C84.5562 101.452 86.6674 97.8451 86.6674 94.0512V81.9089C86.6674 79.6402 85.7632 77.4652 84.155 75.8651C80.8054 72.5324 80.8057 67.1106 84.155 63.7776C85.7631 62.1774 86.6674 60.002 86.6674 57.7334V47.199C86.6674 46.1801 85.8344 45.3399 84.8452 45.0956C78.9922 44.3187 73.2689 42.6349 67.5457 41.3411C61.8209 39.9173 55.968 38.2335 50.115 37.0696C47.7723 36.5512 45.3014 36.2927 42.9602 36.8097C41.6598 37.0696 40.619 37.5866 39.5781 38.3635C38.667 39.0104 37.8871 40.0458 37.3666 41.2111C36.976 42.5064 36.8462 43.9302 37.3666 45.3541C37.7264 46.2495 38.3348 47.0207 39.1058 47.6252C39.6539 48.055 39.8598 48.8451 39.4538 49.4111ZM47.3102 61.7509C45.2933 62.6002 43.7067 64.284 43.259 66.4262C42.0703 72.1143 42.2855 78.1641 44.1308 83.6731C44.7338 85.3402 45.475 86.9732 46.3365 88.5363C47.7624 91.1235 50.9741 91.9322 53.6956 90.7832C56.0977 89.7691 57.659 87.4151 57.659 84.8077V68.6219C57.659 63.2898 52.2243 59.6815 47.3102 61.7509Z" fill="#202124"/>
</svg>
