<svg width="343" height="81" viewBox="0 0 343 81" fill="none" xmlns="http://www.w3.org/2000/svg">
<path d="M329.163 17.657L329.089 17.433H328.941L328.867 17.657L329.015 17.806L329.163 17.657ZM329.976 18.03L333.968 21.989C334.413 22.438 334.856 22.887 335.299 23.259C335.521 23.409 335.743 23.558 336.038 23.708C336.335 23.782 336.631 23.858 336.926 23.858C337.222 23.858 337.517 23.782 337.813 23.633L338.11 24.081L335.891 29.758L335.373 30.207L328.941 18.627L326.353 23.782C326.131 24.305 325.835 24.828 325.688 25.351C325.54 25.65 325.466 25.95 325.466 26.248C325.466 26.547 325.466 26.846 325.54 27.144C325.688 27.443 325.835 27.667 326.057 27.891L325.762 28.34L319.699 27.965L319.107 27.592L327.979 17.806L322.434 16.984C321.843 16.91 321.252 16.76 320.66 16.76C320.364 16.76 320.068 16.76 319.773 16.835C319.477 16.91 319.256 17.059 318.959 17.209C318.737 17.433 318.516 17.657 318.368 17.956L317.851 17.806L316.372 11.83L316.593 11.158L328.497 16.686L327.536 11.083C327.462 10.485 327.388 9.887 327.241 9.29C327.093 8.991 327.019 8.767 326.871 8.468C326.712 8.234 326.511 8.031 326.279 7.87C325.983 7.646 325.688 7.572 325.392 7.497V6.974L330.493 3.612H331.233L329.68 16.76L334.708 14.145C335.226 13.921 335.743 13.623 336.261 13.324C336.483 13.1 336.704 12.95 336.926 12.726C337.074 12.503 337.222 12.204 337.37 11.906C337.443 11.606 337.443 11.307 337.37 11.008L337.887 10.858L342.619 14.743L342.841 15.416L329.976 18.03ZM8.09054 23.381C5.79655 22.406 3.85554 20.456 2.88454 18.062C1.91354 15.669 1.82554 12.921 2.70854 10.527C3.41354 8.577 4.64954 6.804 6.23754 5.474C7.82554 4.144 9.76654 3.169 11.7955 2.637C14.0015 2.105 16.2955 2.017 18.5895 2.283C20.8835 2.637 23.0895 3.258 25.2955 3.967C28.5595 5.031 31.7365 6.272 35.0885 6.981C37.6475 7.602 40.2065 8.399 42.8535 8.488C43.7355 8.488 44.7065 8.399 45.5005 8.045C45.8535 7.779 46.2065 7.513 46.4705 7.158C46.7355 6.715 46.9125 6.361 47.0005 5.829C47.0005 5.385 46.9125 4.854 46.7355 4.499C46.4705 4.056 46.1175 3.612 45.7655 3.346C44.9705 2.726 44.0885 2.46 43.1185 2.194C42.1475 2.017 41.1765 1.839 40.2945 1.751V0.066C41.3535 -0.022 42.5005 -0.022 43.5595 0.066C45.5885 0.332 47.7065 0.864 49.4705 1.839C51.3235 2.815 52.9115 4.322 53.8825 6.183C54.9415 8.134 55.2055 10.527 54.6765 12.743C54.0585 14.959 52.6475 16.821 50.7055 18.151C49.1175 19.215 47.1765 19.924 45.1475 20.101C44.4415 20.19 43.6475 20.278 42.9415 20.278V30.916L48.7645 36.856L42.9415 42.795V56.27C43.5595 55.826 44.0885 55.383 44.7065 54.94C47.9705 52.192 50.5295 48.646 52.1175 44.657H53.7945C53.9705 48.735 52.9995 52.812 51.1475 56.447C49.0295 60.436 45.8535 63.805 41.9715 66.11C38.0885 68.415 33.6775 69.656 29.1775 69.833C20.9715 70.099 12.6785 66.642 7.11954 60.525C1.56154 54.408 -1.08546 45.721 0.414545 37.654C1.38454 32.601 3.85554 27.902 7.47254 24.268C11.0905 20.722 15.7665 18.328 20.7955 17.442L21.6775 18.771C17.7955 21.342 14.7075 24.977 12.7665 29.232L32.1775 20.899V47.848L16.6485 54.408C17.8705 55.643 19.2675 56.689 20.7955 57.511C24.5015 59.638 28.9125 60.436 33.1475 59.904C35.7065 59.638 38.1775 58.841 40.4715 57.688V42.706L34.6475 36.856L40.4715 31.005V20.101C40.0295 20.101 39.5885 20.012 39.2355 19.924C35.2655 19.392 31.3835 18.239 27.5015 17.353C23.6185 16.378 19.6485 15.225 15.6785 14.428C14.0895 14.073 12.4135 13.896 10.8255 14.25C9.94354 14.428 9.23755 14.782 8.53154 15.314C7.91354 15.757 7.38454 16.466 7.03154 17.264C6.76654 18.151 6.67854 19.126 7.03154 20.101C7.38454 20.988 8.09054 21.697 8.97254 22.14L8.09054 23.381ZM11.6195 32.246C10.2075 36.767 10.1195 41.82 11.6195 46.341C12.4135 48.557 13.5605 50.685 14.9725 52.546L20.7955 50.064V28.345L11.6195 32.246ZM76.2155 59.55L79.0395 62.386L81.7745 60.525L83.3625 62.475L72.4215 70.188L63.3345 62.386L59.9815 64.514L58.4815 62.475L64.3925 58.663V18.328C64.3925 17.885 64.3925 17.442 64.2165 16.998C64.1285 16.555 63.9515 16.112 63.7755 15.757C63.3345 15.225 62.8045 14.782 62.1875 14.516C61.4815 14.162 60.8635 13.896 60.1575 13.63V12.389L74.5395 2.194H76.2155V35.083L87.1565 24.711L96.5095 32.512L100.039 29.675L101.539 31.625L97.7445 34.728V57.865C97.7445 60.259 97.7445 62.652 97.3035 65.046C96.9505 67.439 96.0675 69.744 94.8325 71.783C92.9835 74.712 90.3125 77.025 87.1565 78.432C83.8745 79.941 80.2285 80.465 76.6575 79.939V77.811C78.5095 77.368 80.3625 76.393 81.7745 75.063C83.3625 73.468 84.4215 71.517 85.1275 69.39C86.2746 65.932 86.3625 62.298 86.3625 58.663V37.476L81.0685 33.044L76.2155 37.654V59.55ZM102.976 64.425L101.476 62.475L105.623 59.106V35.703L126.711 24.711L135.623 38.274V38.717L116.565 50.596V54.408L127.152 61.677L136.945 54.054L138.181 56.181L120.005 70.985L106.858 61.234L102.976 64.425ZM116.565 48.469L125.916 42.529L118.329 31.448L116.565 32.423V48.469ZM147.541 67.883C147.071 67.883 146.835 67.675 146.835 67.262L146.746 6.892C146.746 6.419 146.982 6.183 147.452 6.183H155.393L170.304 41.111L169.863 6.892C169.863 6.419 170.128 6.183 170.657 6.183H179.392C179.745 6.183 179.922 6.419 179.922 6.892L180.01 67.351C180.01 67.705 179.863 67.883 179.569 67.883H171.804L156.54 35.26L157.158 67.174C157.158 67.647 156.893 67.883 156.364 67.883H147.541ZM188.028 67.883C187.792 67.883 187.675 67.735 187.675 67.439L187.763 6.538C187.763 6.302 187.88 6.183 188.116 6.183H216.438C216.673 6.183 216.791 6.331 216.791 6.626V16.555C216.791 16.791 216.673 16.91 216.438 16.91H198.351V30.739H216.438C216.673 30.739 216.791 30.857 216.791 31.094L216.879 41.111C216.879 41.347 216.761 41.465 216.527 41.465H198.351V56.979H216.527C216.761 56.979 216.879 57.126 216.879 57.422V67.528C216.879 67.764 216.761 67.883 216.527 67.883H188.028ZM232.843 67.883C232.607 67.883 232.46 67.735 232.401 67.439L221.99 6.538C221.931 6.302 222.019 6.183 222.254 6.183H232.137C232.372 6.183 232.519 6.302 232.577 6.538L238.224 46.607L244.048 6.538C244.107 6.302 244.283 6.183 244.578 6.183H252.518C252.753 6.183 252.9 6.302 252.958 6.538L258.695 46.607L264.43 6.538C264.488 6.302 264.635 6.183 264.87 6.183H274.665C274.958 6.183 275.076 6.302 275.016 6.538L264.518 67.439C264.449 67.571 264.359 67.691 264.252 67.794L264.076 67.883H253.401C253.224 67.883 253.076 67.735 252.958 67.439L248.46 35.615L243.96 67.439C243.9 67.735 243.754 67.883 243.518 67.883H232.843ZM294.093 68.769C290.917 68.769 288.005 67.971 285.358 66.376C282.792 64.744 280.646 62.527 279.094 59.904C277.565 57.186 276.8 54.201 276.8 50.951V46.873C276.8 46.577 276.948 46.43 277.241 46.43H287.123C287.359 46.43 287.476 46.577 287.476 46.873V50.951C287.476 52.901 288.123 54.585 289.417 56.004C290.712 57.363 292.27 58.043 294.093 58.043C295.917 58.043 297.476 57.334 298.769 55.915C300.064 54.497 300.71 52.842 300.71 50.951C300.71 48.765 299.299 46.873 296.475 45.277C295.535 44.745 294.064 43.918 292.064 42.795C290.178 41.737 288.296 40.673 286.417 39.604C283.182 37.712 280.77 35.349 279.182 32.512C277.653 29.616 276.888 26.365 276.888 22.761C276.888 19.451 277.682 16.496 279.27 13.896C280.858 11.236 282.947 9.139 285.535 7.602C288.131 6.079 291.087 5.283 294.093 5.297C297.211 5.297 300.064 6.095 302.652 7.69C305.261 9.189 307.424 11.362 308.916 13.984C310.504 16.585 311.298 19.51 311.298 22.761V30.03C311.298 30.266 311.181 30.384 310.945 30.384H301.063C300.828 30.384 300.71 30.266 300.71 30.03L300.622 22.761C300.622 20.692 299.976 19.007 298.681 17.708C297.387 16.408 295.858 15.757 294.093 15.757C292.27 15.757 290.712 16.466 289.417 17.885C288.123 19.245 287.476 20.869 287.476 22.761C287.476 24.711 287.888 26.336 288.711 27.636C289.535 28.936 291.035 30.177 293.211 31.359C293.505 31.537 294.064 31.861 294.887 32.335C295.77 32.748 296.711 33.251 297.711 33.842C298.711 34.374 299.593 34.847 300.358 35.26C301.181 35.673 301.681 35.939 301.857 36.058C304.799 37.712 307.123 39.751 308.828 42.175C310.534 44.538 311.386 47.464 311.386 50.951C311.386 54.319 310.592 57.363 309.004 60.082C307.476 62.741 305.387 64.869 302.74 66.464C300.152 68.001 297.269 68.769 294.093 68.769Z" fill="#202124"/>
</svg>
