<svg width="17" height="15" viewBox="0 0 17 15" fill="none" xmlns="http://www.w3.org/2000/svg">
<path d="M16.6935 7.54895C16.6924 7.19131 16.5863 6.84187 16.3883 6.54404C16.1903 6.24621 15.9091 6.01313 15.5797 5.87375C15.2504 5.73437 14.8873 5.69483 14.5357 5.76006C14.184 5.82528 13.8593 5.99239 13.6018 6.24062C12.1568 5.2644 10.4619 4.72354 8.71849 4.68228L9.55182 0.765617L12.2768 1.35728C12.2908 1.67351 12.4196 1.97379 12.6392 2.20178C12.8588 2.42978 13.154 2.56983 13.4695 2.59566C13.7849 2.6215 14.099 2.53134 14.3527 2.34211C14.6065 2.15287 14.7825 1.87756 14.8477 1.56781C14.9129 1.25807 14.8628 0.935172 14.7069 0.659695C14.551 0.384218 14.3 0.175089 14.0009 0.0715349C13.7017 -0.0320188 13.3751 -0.0228812 13.0823 0.0972337C12.7894 0.217349 12.5504 0.440188 12.4102 0.72395L9.37682 0.0822836C9.28516 0.065617 9.19349 0.0822836 9.13516 0.132284C9.06016 0.17395 9.01849 0.24895 9.00182 0.34895L8.07682 4.69895C6.13516 4.75728 4.38516 5.34895 3.11849 6.24895C2.77354 5.93191 2.32029 5.75896 1.85182 5.76562C1.43198 5.75352 1.02112 5.88864 0.690399 6.14756C0.359677 6.40648 0.129913 6.7729 0.0408941 7.18338C-0.0481252 7.59386 0.0092053 8.02254 0.202958 8.3952C0.396711 8.76786 0.714686 9.06103 1.10182 9.22395C1.07107 9.40561 1.05713 9.58973 1.06016 9.77395C1.06016 12.5823 4.32682 14.874 8.36016 14.874C12.3935 14.874 15.6602 12.599 15.6602 9.77395C15.6602 9.59895 15.6518 9.40728 15.6185 9.22395C15.9393 9.07707 16.2112 8.84112 16.4017 8.54417C16.5923 8.24723 16.6936 7.90179 16.6935 7.54895ZM4.19349 8.84895C4.19349 8.13228 4.76016 7.54895 5.47682 7.54895C6.19349 7.54895 6.77682 8.13228 6.77682 8.84895C6.77682 9.19373 6.63986 9.52439 6.39606 9.76819C6.15226 10.012 5.8216 10.149 5.47682 10.149C4.76016 10.1656 4.19349 9.56562 4.19349 8.84895ZM11.4518 12.299C10.5518 13.1989 8.85182 13.2656 8.36016 13.2656C7.85182 13.2656 6.15182 13.1823 5.26849 12.299C5.23699 12.2679 5.21198 12.231 5.19491 12.1902C5.17784 12.1494 5.16905 12.1057 5.16905 12.0615C5.16905 12.0172 5.17784 11.9735 5.19491 11.9327C5.21198 11.8919 5.23699 11.855 5.26849 11.824C5.29951 11.7925 5.33648 11.7674 5.37725 11.7504C5.41802 11.7333 5.46179 11.7245 5.50599 11.7245C5.55019 11.7245 5.59396 11.7333 5.63473 11.7504C5.6755 11.7674 5.71247 11.7925 5.74349 11.824C6.31016 12.3906 7.52682 12.5823 8.36016 12.5823C9.19349 12.5823 10.4185 12.3906 10.9768 11.824C11.0078 11.7925 11.0448 11.7674 11.0856 11.7504C11.1264 11.7333 11.1701 11.7245 11.2143 11.7245C11.2585 11.7245 11.3023 11.7333 11.3431 11.7504C11.3838 11.7674 11.4208 11.7925 11.4518 11.824C11.5685 11.9573 11.5685 12.1656 11.4518 12.299ZM11.2102 10.1656C10.4935 10.1656 9.91016 9.58228 9.91016 8.86562C9.91016 8.52084 10.0471 8.19018 10.2909 7.94638C10.5347 7.70258 10.8654 7.56562 11.2102 7.56562C11.9268 7.56562 12.5268 8.14895 12.5268 8.86562C12.5182 9.21056 12.3762 9.53875 12.1307 9.78118C11.8851 10.0236 11.5552 10.1614 11.2102 10.1656Z" fill="#202124"/>
</svg>
